# xmcd CD database file
#
# Track frame offsets:
#	150
#	16213
#	32813
#	47747
#	62007
#	83750
#	95171
#	110607
#	125630
#	142700
#	162838
#	178809
#	191439
#	207101
#	223023
#	238656
#	255197
#
# Disc length: 3606 seconds
#
# Revision: 0
# Processed by: cddbd v1.5.1PL2 Copyright (c) Steve Scherf et al.
# Submitted via: CDex 1.50
#
DISCID=e70e1411
DTITLE=Bev Stokes - Sentimental Me
DYEAR=2005
DGENRE=Country
TTITLE0=Bar Room Roses
TTITLE1=Winter Winds
TTITLE2=Jukebox On My Mind
TTITLE3=Grandpa's Fiddle
TTITLE4=I'll Be Home Soon
TTITLE5=Blackhills Of Dakota
TTITLE6=Don't Let Me Cross Over
TTITLE7=Little Craigie Church
TTITLE8=God Please Forgive Me
TTITLE9=Just Listen
TTITLE10=Breaking In A Brand New Broken Heart
TTITLE11=Fire Of Gidgee Coal
TTITLE12=You Don't Know Me
TTITLE13=Darlin' When You're Hurtin'
TTITLE14=Wild River
TTITLE15=Singer Or Writer
TTITLE16=Bye Bye Love
EXTD=YEAR: 2005
EXTT0=
EXTT1=
EXTT2=
EXTT3=
EXTT4=
EXTT5=
EXTT6=
EXTT7=
EXTT8=
EXTT9=
EXTT10=
EXTT11=
EXTT12=
EXTT13=
EXTT14=
EXTT15=
EXTT16=
PLAYORDER=
